<?xml version="1.0" encoding="utf-8"?>
<!-- Generator: Adobe Illustrator 23.0.1, SVG Export Plug-In . SVG Version: 6.00 Build 0)  -->
<svg version="1.1" xmlns="http://www.w3.org/2000/svg" xmlns:xlink="http://www.w3.org/1999/xlink" x="0px" y="0px"
	 viewBox="0 0 256 256" style="enable-background:new 0 0 256 256;" xml:space="preserve">
<style type="text/css">
	.st0{display:none;}
	.st1{display:inline;stroke:#000000;stroke-miterlimit:10;}
	.st2{fill:#FFFFFF;}
	.st3{fill:none;stroke:#FFFFFF;stroke-width:20;stroke-miterlimit:10;}
</style>
<g id="Layer_2" class="st0">
	<rect class="st1" width="256" height="256"/>
</g>
<g id="Layer_1">
	<path class="st2" d="M77.4,105V87.4c0-3.4,2.8-6.1,6.1-6.1h6.7c3.4,0,6.1,2.8,6.1,6.1V105c0,3.4,2.8,6.1,6.1,6.1h19.8
		c3.4,0,6.1,2.8,6.1,6.1v6.7c0,3.4-2.8,6.1-6.1,6.1h-19.8c-3.4,0-6.1,2.8-6.1,6.1v20.2c0,3.4-2.8,6.1-6.1,6.1h-6.7
		c-3.4,0-6.1-2.8-6.1-6.1v-20.2c0-3.4-2.8-6.1-6.1-6.1H51.4c-3.4,0-6.1-2.8-6.1-6.1v-6.7c0-3.4,2.8-6.1,6.1-6.1h19.8
		C74.6,111.1,77.4,108.4,77.4,105z"/>
	<path class="st2" d="M175.1,58.1v120c0,3.4,2.8,6.1,6.1,6.1h19.6c3.4,0,6.1,2.8,6.1,6.1v6.2c0,3.4-2.8,6.1-6.1,6.1h-74
		c-3.4,0-6.1-2.8-6.1-6.1v-6.2c0-3.4,2.8-6.1,6.1-6.1h22.2c3.4,0,6.1-2.8,6.1-6.1V77.4c0-3.4-2.8-6.1-6.1-6.1h-9.9
		c-3.4,0-6.1-2.8-6.1-6.1v-6.9c0-3.4,2.8-6.1,6.1-6.1h29.7C172.4,52,175.1,54.8,175.1,58.1z"/>
	<path class="st3" d="M232.9,244.7H23.1c-6.5,0-11.8-5.3-11.8-11.8V23.1c0-6.5,5.3-11.8,11.8-11.8h209.8c6.5,0,11.8,5.3,11.8,11.8
		v209.8C244.7,239.4,239.4,244.7,232.9,244.7z"/>
</g>
</svg>
